<?xml version="1.0" encoding="UTF-8"?>
<svg width="50mm" height="50mm" clip-rule="evenodd" fill-rule="evenodd" image-rendering="optimizeQuality" shape-rendering="geometricPrecision" text-rendering="geometricPrecision" version="1.1" viewBox="0 0 50 50" xmlns="http://www.w3.org/2000/svg" xmlns:cc="http://creativecommons.org/ns#" xmlns:dc="http://purl.org/dc/elements/1.1/" xmlns:rdf="http://www.w3.org/1999/02/22-rdf-syntax-ns#">
 <metadata>
  <rdf:RDF>
   <cc:Work rdf:about="">
    <dc:format>image/svg+xml</dc:format>
    <dc:type rdf:resource="http://purl.org/dc/dcmitype/StillImage"/>
    <dc:title/>
   </cc:Work>
  </rdf:RDF>
 </metadata>
 <g transform="translate(-1540.2 943.05)">
  <path d="m1562.9-907.83-1.1611 1.0456c-4.3483 4.9451-11.457-1.8757-16.41 3.1376l2.6089 4.9427c6.2765-3.2398 10.086 3.268 17.341-3.5506 7.2548 6.8186 11.065 0.3108 17.341 3.5506l2.6088-4.9427c-4.9531-5.0133-12.061 1.8075-16.409-3.1376l-1.1613-1.0456z" fill="#424242" stroke="#0f0f0f" stroke-linejoin="round" stroke-width="1.3" style="paint-order:normal"/>
  <path d="m1573.3-906.9c0-0.14815 4.9806-6.0742 4.8782-9.7412-0.2301-6.7809-7.2558-13.518-10.118-16.949 0.4048-0.42754 0.6223-0.9371 0.6229-1.4595 1e-4 -1.4056-1.5368-2.5449-3.4327-2.5448-1.8957 1e-4 -3.4324 1.1395-3.4322 2.5448 0 0.52197 0.2194 1.0309 0.6243 1.458-2.8618 3.4314-9.8907 10.169-10.121 16.951-0.1022 3.667 4.8783 9.5931 4.8783 9.7412" fill="#424242" stroke="#0f0f0f" stroke-linejoin="round" stroke-width="1.3" style="paint-order:normal"/>
  <path d="m1565.2-925.49c-1.2184 0.074-2.1824 0.9143-2.1826 1.9407 0 0.41893 0.1651 0.82676 0.4682 1.1624h-2.7546v2.8667h3.1196l-1.3378 1.2622 2.6872 2.8673 2.6872-2.8673-1.3378-1.2622h3.1196v-2.8667h-2.7541c0.3031-0.33561 0.4645-0.74344 0.4677-1.1624-1e-4 -1.0264-0.9641-1.8671-2.1826-1.9407z" fill="#9b9b9b" fill-rule="evenodd" style="paint-order:fill markers stroke"/>
  <path d="m1565.2-937.6c-0.9321 2e-4 -1.8241 0.28139-2.4709 0.77895 2.8958 0.20827 4.8937 0.55548 3.3588 4.3365 2.8626 3.432 8.4603 9.0574 8.6903 15.838 0.1024 3.667-4.8781 9.5935-4.8781 9.7417h3.3495c0-0.14825 4.9805-6.0748 4.8781-9.7417-0.23-6.7809-7.2557-13.518-10.118-16.949 0.4048-0.42754 0.6223-0.9371 0.6229-1.4595 1e-4 -1.4054-1.5365-2.5447-3.4322-2.5448z" opacity=".4"/>
  <path d="m1565.5-905.71 1.1614 1.0457c4.3483 4.9451 12.601-2.2028 17.554 2.8105l-1.6672 3.2384c0.2649 0.10614-0.2443-0.22747 0.029-0.086l2.6089-4.9424c-4.9531-5.0133-12.061 1.8073-16.409-3.1378-0.9529 0-1.4107 1.7254-3.278 1.0716z" fill-opacity=".98824" opacity=".4" style="paint-order:normal"/>
  <ellipse cx="1565.3" cy="-906.92" rx="8.1409" ry="1.35" fill="#9b9b9b" fill-rule="evenodd" stroke="#0f0f0f" stroke-linejoin="round" stroke-width="1.3" style="paint-order:normal"/>
 </g>
</svg>
