<?xml version="1.0" encoding="UTF-8"?>
<svg width="50mm" height="50mm" clip-rule="evenodd" fill-rule="evenodd" image-rendering="optimizeQuality" shape-rendering="geometricPrecision" text-rendering="geometricPrecision" version="1.1" viewBox="0 0 50 50" xmlns="http://www.w3.org/2000/svg" xmlns:cc="http://creativecommons.org/ns#" xmlns:dc="http://purl.org/dc/elements/1.1/" xmlns:rdf="http://www.w3.org/1999/02/22-rdf-syntax-ns#">
 <metadata>
  <rdf:RDF>
   <cc:Work rdf:about="">
    <dc:format>image/svg+xml</dc:format>
    <dc:type rdf:resource="http://purl.org/dc/dcmitype/StillImage"/>
    <dc:title/>
   </cc:Work>
  </rdf:RDF>
 </metadata>
 <g transform="translate(-1639 945.84)">
  <path d="m1664-942.39c1.3733 0.0858 2.4599 1.0652 2.4601 2.2609 0 0.48795-0.1855 0.96257-0.5271 1.3535h3.1044v3.3399h-3.5166l1.508 1.4701-3.0288 3.3394-3.0283-3.3394 1.508-1.4701h-3.5166v-3.3399h3.1049c-0.3417-0.3909-0.5237-0.86552-0.5276-1.3535 3e-4 -1.1956 1.0863-2.175 2.4596-2.2609z" fill="#424242" fill-rule="evenodd" stroke="#0f0f0f" stroke-linejoin="round" stroke-width="1.3" style="paint-order:normal"/>
  <path d="m1650-903c-1.8323-0.79798-1.6576-3.7427-1.5524-5.4875-6.2092-3.297-9.4576-22.062 8.8561-18.791v2e-5c1.1456-2.129 4.0535-3.3434 6.701-3.3434 2.6476 0 5.5554 1.2144 6.7011 3.3434 0 0-1e-4 -5e-5 0-2e-5 18.314-3.2712 15.065 15.494 8.856 18.791 0.1053 1.7448 0.2799 4.6896-1.5523 5.4875" fill="#424242" stroke="#0f0f0f" stroke-linejoin="round" stroke-width="1.3" style="paint-order:normal"/>
  <path d="m1674.6-927.66c-0.6798 3e-3 -1.4021 0.0456-2.1655 0.12941 11.439 1.5203 8.2775 16.166 2.8608 19.043 0.1052 1.7448 0.2801 4.6899-1.5522 5.4879h4.2541c1.8323-0.79795 1.6574-3.7431 1.5522-5.4879 5.7241-3.0395 8.9322-19.224-4.9494-19.172z" opacity=".4"/>
  <g fill="#9b9b9b" fill-rule="evenodd">
   <path d="m1657.8-926.22c-2.5037 4.3925-4.5075 12.752-1.7475 15.745-0.8901-3.5421 6.3572-21.273 1.7258-15.746z" style="paint-order:fill markers stroke"/>
   <ellipse cx="1664" cy="-903" rx="14.004" ry="1.5144" stroke="#000" stroke-linejoin="round" stroke-width="1.3" style="paint-order:normal"/>
   <path d="m1670.1-926.22c2.5037 4.3925 4.5075 12.752 1.7475 15.745 0.8901-3.5421-6.3572-21.273-1.7258-15.746z" style="paint-order:fill markers stroke"/>
  </g>
 </g>
</svg>
