<?xml version="1.0" encoding="UTF-8"?>
<svg width="50mm" height="50mm" clip-rule="evenodd" fill-rule="evenodd" image-rendering="optimizeQuality" shape-rendering="geometricPrecision" text-rendering="geometricPrecision" version="1.1" viewBox="0 0 50 50" xmlns="http://www.w3.org/2000/svg" xmlns:cc="http://creativecommons.org/ns#" xmlns:dc="http://purl.org/dc/elements/1.1/" xmlns:rdf="http://www.w3.org/1999/02/22-rdf-syntax-ns#">
 <metadata>
  <rdf:RDF>
   <cc:Work rdf:about="">
    <dc:format>image/svg+xml</dc:format>
    <dc:type rdf:resource="http://purl.org/dc/dcmitype/StillImage"/>
    <dc:title/>
   </cc:Work>
  </rdf:RDF>
 </metadata>
 <g transform="translate(-1486.9 945.96)">
  <path d="m1509.7-940.53-2.4508 0.47348-0.9771 3.4646-2.1306-1.44-1.4023 0.42963 0.7471 5.0082c-2.0374 2.1791-2.6663 4.0662-4.0896 6.2869-2.3665 3.6924-4.9626 7.4666-5.4402 8.8665-0.3517 6.0249 1.8382 5.5572 6.0339 7.207 3.0176-0.44373 2.7062-4.6791 9.6246-5.3103 3.0725-1.2157 3.2646-2.0445 5.4731-4.6033 0.6844 7.0364-15.352 9.8503-13.404 18.487l15.76 0.0326 10.848 0.0256c3.7434-16.973 1.0014-28.073-14.348-34.188z" fill="#424242" stroke="#0f0f0f" stroke-linejoin="round" stroke-width="1.3" style="paint-order:normal"/>
  <path d="m1508.5-928.41c-0.4425-6e-3 -0.8201 0.28819-1.0706 0.61605-0.4066 0.53884-0.6182 1.1916-0.7351 1.842-0.042 0.28006-0.092 0.56398-0.075 0.84729 0.026 0.0987 0.1422 0.064 0.2138 0.0445 0.6201-0.119 1.2662-0.1293 1.8725-0.31966 0.4395-0.14132 0.7873-0.46922 1.0155-0.85048 0.2296-0.36242 0.3279-0.78111 0.4633-1.1807 0.06-0.14015 0.043-0.31905-0.094-0.41217-0.2283-0.16205-0.5048-0.24404-0.7588-0.36032-0.2494-0.0976-0.4965-0.23117-0.7737-0.22594-0.019-5.2e-4 -0.038-7.8e-4 -0.058-5.2e-4z" fill="#9b9b9b" fill-rule="evenodd" style="paint-order:fill markers stroke"/>
  <path d="m1497.4-915.12c0.2343-0.0155 0.4205-0.18641 0.5379-0.37019 0.1904-0.30184 0.2723-0.65581 0.3042-1.0047 0.01-0.14984 0.023-0.30209 1e-3 -0.45125-0.018-0.0511-0.078-0.0279-0.1151-0.0147-0.3225 0.0887-0.6637 0.12087-0.9756 0.24668-0.226 0.093-0.3949 0.28079-0.498 0.49189-0.1049 0.2012-0.1376 0.42671-0.1909 0.64364-0.025 0.0766-0.01 0.17051 0.069 0.21408 0.1281 0.0762 0.2781 0.10814 0.4178 0.15912 0.1364 0.0413 0.2732 0.10168 0.4196 0.0874 0.01-5.2e-4 0.02-9.8e-4 0.03-2e-3z" fill="#9b9b9b" fill-rule="evenodd" style="paint-order:fill markers stroke"/>
  <path d="m1509.7-940.54 1.5385 4.7398c15.346 6.1135 17.548 16.572 13.809 33.538l3.2501 0.0126c3.7434-16.973 1.0011-27.436-14.348-33.551z" opacity=".4"/>
 </g>
</svg>
