<?xml version="1.0" encoding="UTF-8"?>
<svg width="50mm" height="50mm" clip-rule="evenodd" fill-rule="evenodd" image-rendering="optimizeQuality" shape-rendering="geometricPrecision" text-rendering="geometricPrecision" version="1.1" viewBox="0 0 50 50" xmlns="http://www.w3.org/2000/svg" xmlns:cc="http://creativecommons.org/ns#" xmlns:dc="http://purl.org/dc/elements/1.1/" xmlns:rdf="http://www.w3.org/1999/02/22-rdf-syntax-ns#">
 <metadata>
  <rdf:RDF>
   <cc:Work rdf:about="">
    <dc:format>image/svg+xml</dc:format>
    <dc:type rdf:resource="http://purl.org/dc/dcmitype/StillImage"/>
    <dc:title/>
   </cc:Work>
  </rdf:RDF>
 </metadata>
 <g transform="translate(-1589 945.35)">
  <path d="m1607.8-941.89c-2.469 0-4.4703 1.9985-4.4703 4.4631 0 2.0239 1.3695 3.7929 3.3299 4.3094v7.5716l-5.4807-3.8246c0.4958-0.73561 0.7615-1.6018 0.7615-2.4883 0-2.4652-2.0018-4.4637-4.4716-4.4637-2.469 0-4.4708 1.9992-4.4708 4.4637 0.066 2.1875 1.9785 3.9001 4.425 4.4614l0.8987 4.3308 1.7988 8.6616 2.8271 5.3061 1.1446 6.6136h19.725l1.1447-6.6136 2.827-5.3061 1.7993-8.6616 0.8981-4.3308c2.4465-0.56134 4.3594-2.274 4.425-4.4614 0-2.4645-2.0011-4.463-4.4703-4.4637-2.4697 0-4.4717 1.9985-4.4714 4.4637 0 0.88657 0.2652 1.7527 0.761 2.4883l-5.4809 3.8246v-7.5716c1.9604-0.51653 3.3272-2.2856 3.33-4.3094 0-2.4646-2.0008-4.4626-4.4698-4.4631-2.4699 0-4.4725 1.9979-4.4721 4.4631 0 1.4566 0.7178 2.8206 1.9149 3.6534l-3.5982 6.7585-3.5989-6.7585c1.1974-0.83281 1.9155-2.1968 1.9155-3.6534 0-2.4653-2.0021-4.4631-4.472-4.4631z" fill="#424242" stroke="#0f0f0f" stroke-width="1.3" style="paint-order:normal"/>
  <path d="m1630.9-936.65c0.8353 0.94611 4.19 5.2048-1.594 8.9253l-4.3362 12.992-3.92 5.3056-1.1444 6.614h4.3702l1.145-6.614 2.8269-5.3056 1.7995-8.6619 0.8979-4.3304c2.4464-0.56133 4.3596-2.2743 4.4253-4.4618 0-2.4646-2.0011-4.4629-4.4702-4.4635z" opacity=".4" style="paint-order:normal"/>
  <path class="st32" d="m1623.9-914.74c-0.9687-0.63578-2.3599-1.127-4.1236-1.5316-1.7639-0.40454-3.7262-0.60685-5.8626-0.60685-2.0865 0-3.9995 0.20231-5.7383 0.57794-1.7389 0.37568-3.1052 0.86694-4.1236 1.5027l0.8942 2.8031c0.9937-0.52017 2.2606-0.86695 3.8504-1.0981 1.5651-0.23118 3.304-0.34675 5.1671-0.34675s3.6019 0.11557 5.1917 0.34675 2.8815 0.60687 3.8753 1.1559z" fill="#9b9b9b"/>
  <ellipse cx="1614" cy="-902.48" rx="9.8626" ry="1.4814" fill="#9b9b9b" fill-rule="evenodd" stroke="#000" stroke-linejoin="round" stroke-width="1.3" style="paint-order:normal"/>
 </g>
</svg>
