<?xml version="1.0" encoding="UTF-8"?>
<svg width="50mm" height="50mm" clip-rule="evenodd" fill-rule="evenodd" image-rendering="optimizeQuality" shape-rendering="geometricPrecision" text-rendering="geometricPrecision" version="1.1" viewBox="0 0 50 50" xmlns="http://www.w3.org/2000/svg" xmlns:cc="http://creativecommons.org/ns#" xmlns:dc="http://purl.org/dc/elements/1.1/" xmlns:rdf="http://www.w3.org/1999/02/22-rdf-syntax-ns#">
 <metadata>
  <rdf:RDF>
   <cc:Work rdf:about="">
    <dc:format>image/svg+xml</dc:format>
    <dc:type rdf:resource="http://purl.org/dc/dcmitype/StillImage"/>
    <dc:title/>
   </cc:Work>
  </rdf:RDF>
 </metadata>
 <g transform="translate(-1042.9 814.37)">
  <g transform="matrix(1.0049 0 0 1.0049 835.44 -174.88)" stroke-width=".99512">
   <path d="m231.32-632.82c1.3666 0.0854 2.4479 1.06 2.4481 2.2498-4e-3 0.48556-0.18452 0.95786-0.52448 1.3468h3.0892v3.3235h-3.4994l1.5007 1.4629-3.014 3.323-3.0136-3.323 1.5007-1.4629h-3.4995v-3.3235h3.0898c-0.33998-0.38899-0.52119-0.86129-0.52498-1.3468 2.2e-4 -1.1898 1.081-2.1644 2.4476-2.2498z" fill="#f0f0f0" fill-rule="evenodd" stroke="#282828" stroke-linejoin="round" stroke-width="1.2937" style="paint-order:normal"/>
   <path d="m217.38-593.63c-1.8233-0.79408-1.6495-3.7244-1.5448-5.4607-6.1789-3.2809-9.4114-21.954 8.8128-18.699 3e-5 -3e-5 0 2e-5 0 2e-5 1.1401-2.1186 4.0337-3.3271 6.6684-3.3271s5.5283 1.2085 6.6684 3.3271c0 0-3e-5 -5e-5 0-2e-5 18.224-3.2552 14.992 15.418 8.8128 18.699 0.10475 1.7363 0.27853 4.6666-1.5448 5.4607" fill="#f0f0f0" stroke="#282828" stroke-linejoin="round" stroke-width="1.2937" style="paint-order:normal"/>
   <path d="m225.18-616.73c-2.4915 4.371-4.4855 12.69-1.739 15.668-0.88578-3.5248 6.3262-21.169 1.7174-15.669z" fill="#646464" fill-rule="evenodd" style="paint-order:fill markers stroke"/>
   <path d="m241.87-618.17c-0.67641 3e-3 -1.3952 0.0454-2.1549 0.12877 11.383 1.5129 8.2372 16.087 2.8469 18.949 0.10472 1.7363 0.27871 4.667-1.5446 5.461h4.2333c1.8233-0.79405 1.6493-3.7248 1.5446-5.461 5.6962-3.0246 8.8887-19.13-4.9253-19.078z" opacity=".4"/>
   <ellipse cx="231.32" cy="-593.63" rx="13.936" ry="1.5069" fill="#646464" fill-rule="evenodd" stroke="#282828" stroke-linejoin="round" stroke-width="1.0946" style="paint-order:normal"/>
   <path d="m237.43-616.73c2.4915 4.371 4.4855 12.69 1.739 15.668 0.88578-3.5248-6.3262-21.169-1.7174-15.669z" fill="#646464" fill-rule="evenodd" style="paint-order:fill markers stroke"/>
  </g>
 </g>
</svg>
