<?xml version="1.0" encoding="UTF-8"?>
<svg width="50mm" height="50mm" clip-rule="evenodd" fill-rule="evenodd" image-rendering="optimizeQuality" shape-rendering="geometricPrecision" text-rendering="geometricPrecision" version="1.1" viewBox="0 0 50 50" xmlns="http://www.w3.org/2000/svg" xmlns:cc="http://creativecommons.org/ns#" xmlns:dc="http://purl.org/dc/elements/1.1/" xmlns:rdf="http://www.w3.org/1999/02/22-rdf-syntax-ns#">
 <metadata>
  <rdf:RDF>
   <cc:Work rdf:about="">
    <dc:format>image/svg+xml</dc:format>
    <dc:type rdf:resource="http://purl.org/dc/dcmitype/StillImage"/>
    <dc:title/>
   </cc:Work>
  </rdf:RDF>
 </metadata>
 <g transform="translate(-1181.3 817.65)">
  <g transform="matrix(1.0245 0 0 .97336 1119.5 -195.43)" stroke-width="1.0014">
   <path d="m82.593-633.65-2.3922 0.48644-0.95375 3.5594-2.0797-1.4795-1.3688 0.44139 0.72929 5.1452h4e-3c-1.9888 2.2388-2.6026 4.1774-3.9918 6.459-2.3099 3.7934-4.844 7.6709-5.3102 9.1092-0.34328 6.1898 1.7943 6.2529 5.8897 7.9479 2.9455-0.45587 2.6415-5.3508 9.3946-5.9993 2.999-1.249 3.1865-2.1005 5.3423-4.7293 0.66801 7.2289-14.985 10.12-13.083 18.993l15.383 0.0335 10.589 0.0263c3.6539-17.438 0.97744-28.842-14.005-35.124z" fill="#f0f0f0" stroke="#282828" stroke-linejoin="round" stroke-width="1.3018" style="paint-order:normal"/>
   <path d="m81.419-621.19c-0.43189-6e-3 -0.80051 0.29607-1.045 0.63291-0.39693 0.55358-0.60341 1.2242-0.71757 1.8924-0.0406 0.28772-0.0897 0.57942-0.0736 0.87048 0.0254 0.10138 0.13881 0.0657 0.2087 0.0457 0.60528-0.12226 1.236-0.13284 1.8278-0.32841 0.42901-0.14519 0.76848-0.48206 0.99118-0.87376 0.22418-0.37234 0.32013-0.80249 0.45226-1.213 0.0585-0.14399 0.0418-0.32778-0.0917-0.42345-0.2228-0.16649-0.49269-0.25072-0.7406-0.37018-0.24341-0.10027-0.48468-0.2375-0.7552-0.23213-0.0188-5.3e-4 -0.0375-8e-4 -0.0562-5.3e-4z" fill="#646464" fill-rule="evenodd" style="paint-order:fill markers stroke"/>
   <path d="m70.57-607.55c0.22866-0.0159 0.41045-0.19151 0.52504-0.38032 0.18577-0.3101 0.26572-0.67376 0.29694-1.0322 9e-3 -0.15394 0.0222-0.31036 9.78e-4 -0.4636-0.0179-0.0525-0.0763-0.0287-0.11238-0.0151-0.31478 0.0911-0.64786 0.12418-0.95233 0.25343-0.22055 0.0955-0.38539 0.28848-0.48608 0.50535-0.10233 0.20671-0.1343 0.43839-0.18627 0.66126-0.0246 0.0787-8e-3 0.17517 0.067 0.21994 0.12509 0.0783 0.27151 0.1111 0.40784 0.16347 0.13311 0.0424 0.26669 0.10446 0.40953 0.0898 0.01-5.3e-4 0.0199-1e-3 0.0297-2e-3z" fill="#646464" fill-rule="evenodd" style="paint-order:fill markers stroke"/>
   <path d="m82.592-633.65 1.5017 4.8695c14.979 6.2808 17.129 17.026 13.479 34.456l3.1724 0.0129c3.6539-17.438 0.97721-28.187-14.005-34.469z" opacity=".4"/>
  </g>
 </g>
</svg>
