<?xml version="1.0" encoding="UTF-8"?>
<svg width="50mm" height="50mm" clip-rule="evenodd" fill-rule="evenodd" image-rendering="optimizeQuality" shape-rendering="geometricPrecision" text-rendering="geometricPrecision" version="1.1" viewBox="0 0 50 50" xmlns="http://www.w3.org/2000/svg" xmlns:cc="http://creativecommons.org/ns#" xmlns:dc="http://purl.org/dc/elements/1.1/" xmlns:rdf="http://www.w3.org/1999/02/22-rdf-syntax-ns#">
 <metadata>
  <rdf:RDF>
   <cc:Work rdf:about="">
    <dc:format>image/svg+xml</dc:format>
    <dc:type rdf:resource="http://purl.org/dc/dcmitype/StillImage"/>
    <dc:title/>
   </cc:Work>
  </rdf:RDF>
 </metadata>
 <g transform="matrix(1.0248 0 0 1.0511 -1123.1 854.09)" stroke-width=".96354">
  <path d="m1114.3-809.22c-2.4093 0-4.3622 1.9014-4.3622 4.2463 0 1.9255 1.3364 3.6086 3.2494 4.1001v7.2038l-5.3482-3.6388c0.4838-0.69987 0.7431-1.5239 0.7431-2.3674 0-2.3454-1.9534-4.2468-4.3634-4.2468-2.4093 0-4.3627 1.902-4.3627 4.2468 0.064 2.0812 1.9306 3.7106 4.318 4.2447l0.8769 4.1204 1.7553 8.2408 2.7587 5.0483 1.117 6.2923h19.248l1.117-6.2923 2.7586-5.0483 1.7558-8.2408 0.8764-4.1204c2.3873-0.53407 4.2539-2.1635 4.3179-4.2447 0-2.3448-1.9527-4.2462-4.3621-4.2468-2.41 0-4.3636 1.9014-4.3633 4.2468 0 0.8435 0.2588 1.6676 0.7426 2.3674l-5.3483 3.6388v-7.2038c1.913-0.49143 3.2467-2.1745 3.2494-4.1001 0-2.3449-1.9524-4.2458-4.3617-4.2463-2.4101 0-4.3643 1.9008-4.3639 4.2463 0 1.3859 0.7004 2.6836 1.8686 3.4759l-3.5112 6.4302-3.5118-6.4302c1.1684-0.79235 1.8691-2.09 1.8691-3.4759 0-2.3455-1.9536-4.2463-4.3638-4.2463z" fill="#f0f0f0" stroke="#282828" stroke-width="1.2526" style="paint-order:normal"/>
  <path class="st32" d="m1130-783.39c-0.9453-0.6049-2.3028-1.0723-4.0239-1.4572-1.7212-0.38489-3.6361-0.57737-5.7208-0.57737-2.036 0-3.9027 0.19248-5.5995 0.54987-1.6968 0.35743-3.0301 0.82482-4.0239 1.4297l0.8726 2.6669c0.9697-0.4949 2.2059-0.82483 3.7573-1.0448 1.5272-0.21995 3.2241-0.32991 5.0421-0.32991 1.8181 0 3.5148 0.10996 5.0661 0.32991 1.5514 0.21995 2.8119 0.57739 3.7816 1.0997z" fill="#646464"/>
  <path d="m1136.9-804.24c0.8151 0.90015 4.0887 4.952-1.5554 8.4917l-4.2313 12.361-3.8252 5.0479-1.1167 6.2926h4.2645l1.1173-6.2926 2.7585-5.0479 1.756-8.2411 0.8761-4.12c2.3873-0.53406 4.2542-2.1638 4.3183-4.245 0-2.3448-1.9527-4.246-4.3621-4.2467z" opacity=".4" style="paint-order:normal"/>
  <ellipse cx="1120.3" cy="-771.73" rx="9.6241" ry="1.4094" fill="#646464" fill-rule="evenodd" stroke="#282828" stroke-linejoin="round" stroke-width="1.0599" style="paint-order:normal"/>
 </g>
</svg>
